<svg xmlns="http://www.w3.org/2000/svg" viewBox="0 0 14.17 14.17">
  <path d="M5.89,0.92L5.89,0.92L5.89,0.92z"/>
	<path d="M13.38,5.93l-1.49,0.62V4.47h0.43c0.08,0,0.16-0.06,0.19-0.13c0.03-0.05,0.04-0.1,0.03-0.15s-0.04-0.1-0.08-0.13
		c-1.4-1.33-3.22-2.09-5.15-2.14H7.28V1.15H8c0.11,0,0.2-0.09,0.2-0.2S8.11,0.75,8,0.75H6.16H6.15c-0.11,0-0.2,0.08-0.2,0.19
		L5.92,0.95h0.03c0,0.11,0.09,0.2,0.2,0.2l0.01,0.03V1.15h0.72v0.77H6.85C4.93,1.97,3.1,2.73,1.71,4.05
		C1.65,4.11,1.63,4.2,1.67,4.27C1.7,4.35,1.77,4.4,1.85,4.4h9.63v7.83c0,0.47-0.38,0.85-0.85,0.85H3.54c-0.47,0-0.85-0.38-0.85-0.85
		V5.16C2.67,5.05,2.56,4.98,2.44,5C2.36,5.02,2.3,5.09,2.28,5.17v1.35L0.79,5.9C0.77,5.89,0.74,5.89,0.72,5.89
		c-0.09,0-0.17,0.05-0.2,0.14v0.01C0.48,6.14,0.53,6.26,0.63,6.3l1.65,0.68v5.25c0,0.69,0.57,1.26,1.26,1.26h7.09
		c0.69,0,1.26-0.57,1.26-1.26V6.95l0.02-0.01l1.63-0.67c0.09-0.04,0.14-0.14,0.11-0.23C13.61,5.94,13.49,5.89,13.38,5.93z M2.39,4
		l0.07-0.05C3.76,2.9,5.4,2.32,7.07,2.32c0.01,0,0.03,0,0.04,0c1.67,0,3.31,0.58,4.61,1.63L11.79,4H2.39z"/>
	<path d="M4.12,10.76V6.41c0-0.11-0.09-0.2-0.2-0.2s-0.2,0.09-0.2,0.2v4.35c0,0.11,0.09,0.2,0.2,0.2
		C4.03,10.96,4.12,10.87,4.12,10.76z"/>
</svg>
